C:\GBW_MyPrograms\KinderuniversiteitApp\Resultaten\Ellis\Maui_v1.mot
version=1
nRows=7
nColumns=31
inDegrees=yes
endheader
                time	         pelvis_tilt	           pelvis_tx	           pelvis_ty	       hip_flexion_r	        knee_angle_r	       ankle_angle_r	       hip_flexion_l	        knee_angle_l	       ankle_angle_l	    lumbar_extension	          arm_flex_r	          arm_flex_l	hamstrings_r/activation	bifemsh_r/activation	glut_max_r/activation	iliopsoas_r/activation	rect_fem_r/activation	  vasti_r/activation	gastroc_r/activation	 soleus_r/activation	tib_ant_r/activation	hamstrings_l/activation	bifemsh_l/activation	glut_max_l/activation	iliopsoas_l/activation	rect_fem_l/activation	  vasti_l/activation	gastroc_l/activation	 soleus_l/activation	tib_ant_l/activation	
          0.76489306	         -0.76663616	          1.00771526	          1.02198159	         10.81422376	        -26.98542413	          7.43327535	         28.21250817	        -45.36390762	         -3.98018726	         -4.08504593	         -3.24880385	         -3.24872134	          0.48108184	          0.64287685	          0.46724810	          0.66474214	          0.59488271	          0.41533619	          0.05037071	          0.05018429	          0.90648748	          0.15557924	          0.66074673	          0.23141266	          0.70497142	          0.64521600	          0.32783259	          0.33678978	          0.05426809	          0.84197589	
          0.77254199	         -0.81072801	          1.01735092	          1.01477052	         10.29651628	        -26.78008819	          9.36642933	         29.06318295	        -44.80419397	         -2.71523332	         -4.08644172	         -3.18539464	         -3.18531693	          0.44303135	          0.62819826	          0.48451269	          0.63741562	          0.60880902	          0.46106708	          0.05053178	          0.05020126	          0.84319818	          0.15083810	          0.65778662	          0.24754344	          0.70307341	          0.63514179	          0.31740399	          0.29949948	          0.05117845	          0.86204250	
          0.78019092	         -0.85798039	          1.02705770	          1.00705176	          9.74570325	        -26.92336943	         11.65814884	         29.89345774	        -44.16244166	         -1.47467912	         -4.07613354	         -3.13301825	         -3.13294573	          0.39397101	          0.61595541	          0.50459072	          0.60272367	          0.63726906	          0.53792986	          0.13732292	          0.12615137	          0.75249067	          0.14801419	          0.65469354	          0.27026425	          0.70236496	          0.62758440	          0.30611881	          0.26623006	          0.05079419	          0.87875892	
          0.78783985	         -0.90769919	          1.03689170	          0.99899485	          9.06557170	        -27.04838830	         14.20618415	         30.68272538	        -43.42677327	         -0.30380558	         -4.04896922	         -3.09953476	         -3.09946765	          0.34997006	          0.58067050	          0.53478638	          0.54197554	          0.68612376	          0.64717655	          0.15746913	          0.13696641	          0.69484526	          0.14932016	          0.65109087	          0.28454830	          0.69179457	          0.61850845	          0.29718214	          0.23674060	          0.05064293	          0.88965661	
          0.79548878	         -0.95959157	          1.04682664	          0.99094730	          8.36889478	        -27.16681295	         16.62744181	         31.40361342	        -42.57267588	          0.74979940	         -4.00928809	         -3.08138192	         -3.08132071	          0.31081038	          0.53808834	          0.53936314	          0.53870809	          0.75178493	          0.70222807	          0.19657775	          0.15547134	          0.65485674	          0.14852907	          0.64114567	          0.30228843	          0.69680166	          0.61952632	          0.28749544	          0.21098502	          0.05057056	          0.87742706	
          0.80313771	         -1.01173686	          1.05670990	          0.98352874	          8.14401689	        -28.08863284	         18.60552574	         32.01876395	        -41.57062461	          1.60191290	         -3.97860330	         -3.05706994	         -3.05701486	          0.27616436	          0.52280463	          0.51650724	          0.64107916	          0.78789515	          0.78283907	          0.24932046	          0.18842940	          0.58987235	          0.15058494	          0.64371827	          0.30053809	          0.70392410	          0.61627741	          0.26846706	          0.22265499	          0.05177888	          0.83878100	
          0.81078664	         -1.07282546	          1.06662640	          0.97695698	          8.38182666	        -29.76322434	         20.04307859	         32.54129679	        -40.54883577	          2.25572158	         -3.93768943	         -3.04067230	         -3.04062397	          0.24541884	          0.51046087	          0.49471504	          0.66812395	          0.82958727	          0.84562445	          0.28902924	          0.24068517	          0.52382281	          0.19335739	          0.64033153	          0.30878570	          0.71758058	          0.61424504	          0.25180249	          0.25176678	          0.05180980	          0.79781270	
